HIERARCHY
ROOT Hips
{
    OFFSET 0.000000 0.000000 0.000000
    CHANNELS 6 Xposition Yposition Zposition Zrotation Xrotation Yrotation
    JOINT Spine
    {
        OFFSET -0.000000 14.517291 0.000000
        CHANNELS 3 Zrotation Xrotation Yrotation
        JOINT Spine1
        {
            OFFSET -0.000000 37.558300 0.000000
            CHANNELS 3 Zrotation Xrotation Yrotation
            JOINT Neck
            {
                OFFSET -0.000000 37.404057 3.400369
                CHANNELS 3 Zrotation Xrotation Yrotation
                JOINT Head
                {
                    OFFSET -0.000000 24.785618 -3.540803
                    CHANNELS 3 Zrotation Xrotation Yrotation
                    End Site
                    {
                        OFFSET -0.000000 35.408028 0.000000
                    }
                }
            }
            JOINT LeftShoulder
            {
                OFFSET 6.992933 33.973492 -0.192664
                CHANNELS 3 Zrotation Xrotation Yrotation
                JOINT LeftArm
                {
                    OFFSET 21.527611 0.000000 0.000000
                    CHANNELS 3 Zrotation Xrotation Yrotation
                    JOINT LeftForeArm
                    {
                        OFFSET 56.353916 0.000000 0.000000
                        CHANNELS 3 Zrotation Xrotation Yrotation
                        JOINT LeftHand
                        {
                            OFFSET 47.774071 0.000000 0.000000
                            CHANNELS 3 Zrotation Xrotation Yrotation
                            End Site
                            {
                                OFFSET 26.556021 0.000000 0.000000
                            }
                        }
                    }
                }
            }
            JOINT RightShoulder
            {
                OFFSET -7.065357 33.973492 -0.192664
                CHANNELS 3 Zrotation Xrotation Yrotation
                JOINT RightArm
                {
                    OFFSET -21.527611 0.000000 0.000000
                    CHANNELS 3 Zrotation Xrotation Yrotation
                    JOINT RightForeArm
                    {
                        OFFSET -56.353916 0.000000 0.000000
                        CHANNELS 3 Zrotation Xrotation Yrotation
                        JOINT RightHand
                        {
                            OFFSET -47.774071 0.000000 0.000000
                            CHANNELS 3 Zrotation Xrotation Yrotation
                            End Site
                            {
                                OFFSET -26.556021 0.000000 0.000000
                            }
                        }
                    }
                }
            }
        }
    }
    JOINT LeftUpLeg
    {
        OFFSET 17.704014 0.000000 0.000000
        CHANNELS 3 Zrotation Xrotation Yrotation
        JOINT LeftLeg
        {
            OFFSET -0.000000 -81.181816 0.000000
            CHANNELS 3 Zrotation Xrotation Yrotation
            JOINT LeftFoot
            {
                OFFSET -0.000000 -62.821102 0.000000
                CHANNELS 3 Zrotation Xrotation Yrotation
                JOINT LeftToeBase
                {
                    OFFSET -0.000000 -11.507608 26.556021
                    CHANNELS 3 Zrotation Xrotation Yrotation
                    End Site
                    {
                        OFFSET -0.000000 0.000000 7.081605
                    }
                }
            }
        }
    }
    JOINT RightUpLeg
    {
        OFFSET -17.704014 0.000000 0.000000
        CHANNELS 3 Zrotation Xrotation Yrotation
        JOINT RightLeg
        {
            OFFSET -0.000000 -81.181816 0.000000
            CHANNELS 3 Zrotation Xrotation Yrotation
            JOINT RightFoot
            {
                OFFSET -0.000000 -62.821102 0.000000
                CHANNELS 3 Zrotation Xrotation Yrotation
                JOINT RightToeBase
                {
                    OFFSET -0.000000 -11.507608 26.556021
                    CHANNELS 3 Zrotation Xrotation Yrotation
                    End Site
                    {
                        OFFSET -0.000000 0.000000 7.081605
                    }
                }
            }
        }
    }
}
MOTION
Frames:    11
Frame Time:    0.008333
20.649641    141.023010    45.314854    9.663642    -16.045250    -64.159767    8.950837    -2.620574    -1.483079    5.308868    0.926923    -0.604862    22.553741    1.843608    13.177263    -18.574667    8.695736    9.475530    12.055270    4.259652    -15.187186    -13.882552    1.105631    -18.620731    19.779013    -5.164827    -45.582802    -6.610753    5.818913    -42.758846    -10.815305    -6.214517    -6.038674    26.198458    -30.815363    39.028030    9.069005    -17.913231    104.562645    15.938509    -24.733385    31.091825    17.295116    -24.345592    11.987765    -28.313675    36.332317    -0.949789    -10.680813    -10.930757    47.704258    0.000000    0.000000    0.000000    -52.994995    -22.243710    -20.432489    16.349239    62.581131    -14.489237    15.976601    -26.440825    2.508354    0.000000    0.000000    0.000000    
20.642416    141.078003    45.375370    9.627590    -16.009455    -64.116852    8.925526    -2.624862    -1.498239    5.330458    0.944293    -0.610815    22.493795    1.811206    13.172562    -18.542637    8.737400    9.481258    12.021068    4.289503    -15.183070    -13.847880    1.125920    -18.703224    19.841600    -5.231534    -45.589615    -6.617325    5.784470    -42.776497    -10.833613    -6.188487    -6.043404    26.235359    -30.822430    39.045883    9.053423    -17.940725    104.545471    15.889455    -24.753807    31.067350    17.262760    -24.344080    11.905360    -28.263193    36.333473    -0.980175    -10.667861    -10.945263    47.721073    0.000000    0.000000    0.000000    -52.888512    -22.157310    -20.304455    16.331793    62.465599    -14.530583    15.996572    -26.398930    2.421398    0.000000    0.000000    0.000000    
20.631403    141.140167    45.442753    9.598797    -15.977612    -64.075294    8.897109    -2.639515    -1.507347    5.328403    0.971705    -0.615276    22.476542    1.862658    13.167257    -18.565771    8.648661    9.472451    12.017707    4.294632    -15.170824    -13.845613    1.095836    -18.792877    19.877594    -5.229648    -45.635994    -6.652879    5.823244    -42.745235    -10.823895    -6.178423    -6.063245    26.247795    -30.870295    39.053173    9.096587    -17.879549    104.525032    15.890509    -24.744141    31.057564    17.219591    -24.341206    11.788822    -28.225292    36.314465    -1.001955    -10.677966    -10.970411    47.759922    0.000000    0.000000    0.000000    -52.790760    -22.065565    -20.212893    16.247162    62.341984    -14.475209    16.012671    -26.354839    2.321530    0.000000    0.000000    0.000000    
20.614689    141.208740    45.506187    9.544353    -15.937703    -64.051285    8.890441    -2.630837    -1.513042    5.321850    0.991084    -0.617757    22.464127    1.875731    13.163074    -18.608669    8.639188    9.468012    11.993374    4.279902    -15.200108    -13.831315    1.090490    -18.823824    19.878481    -5.264167    -45.685947    -6.713583    5.820043    -42.698948    -10.837310    -6.170262    -6.071666    26.288647    -30.892460    39.067440    9.064777    -17.859146    104.479286    15.859528    -24.685207    31.062368    17.193403    -24.318480    11.684105    -28.169083    36.302303    -1.029195    -10.691919    -10.995304    47.797329    0.000000    0.000000    0.000000    -52.654865    -21.966900    -20.071928    16.185852    62.203186    -14.447587    16.019217    -26.309769    2.219101    0.000000    0.000000    0.000000    
20.600271    141.288513    45.574905    9.486549    -15.876287    -64.023582    8.910971    -2.622487    -1.527990    5.295277    0.997059    -0.622692    22.418226    1.865280    13.163400    -18.550417    8.655029    9.479085    11.999440    4.277359    -15.189048    -13.828859    1.103512    -18.893484    19.895014    -5.273557    -45.704685    -6.675826    5.810731    -42.755486    -10.853222    -6.156967    -6.043697    26.314819    -30.931637    39.039635    9.043242    -17.816685    104.443924    15.802500    -24.628542    31.050045    17.182579    -24.301842    11.549453    -28.133820    36.272491    -1.017900    -10.672867    -10.989943    47.825542    0.000000    0.000000    0.000000    -52.495556    -21.859617    -19.964546    16.058956    62.046623    -14.379730    16.050253    -26.239935    2.138655    0.000000    0.000000    0.000000    
20.587191    141.372818    45.643921    9.434341    -15.811480    -63.987926    8.922679    -2.614564    -1.535710    5.261529    0.992077    -0.624623    22.448174    1.899104    13.164487    -18.603252    8.625731    9.474614    12.017175    4.312975    -15.179358    -13.813457    1.145226    -18.978640    19.972290    -5.325758    -45.710983    -6.656504    5.789646    -42.813107    -10.817272    -6.152986    -6.029952    26.276169    -30.911512    39.014145    9.023632    -17.858437    104.428429    15.771582    -24.651920    31.036779    17.166313    -24.291531    11.402784    -28.089464    36.235725    -1.041972    -10.675716    -10.999872    47.884567    0.000000    0.000000    0.000000    -52.324135    -21.750912    -19.946562    15.735245    61.905010    -14.171541    16.119825    -26.156366    2.118827    0.000000    0.000000    0.000000    
20.560698    141.466904    45.713158    9.349122    -15.730734    -63.960712    8.944220    -2.599083    -1.539160    5.274692    1.010420    -0.626457    22.448584    1.933005    13.172130    -18.665613    8.580136    9.477736    12.002303    4.298873    -15.186528    -13.825960    1.156263    -19.057594    19.995201    -5.353973    -45.722431    -6.711642    5.796331    -42.828354    -10.837587    -6.142526    -6.055543    26.268660    -30.842890    39.017975    8.928141    -17.982040    104.385376    15.858483    -24.623478    31.052460    17.176435    -24.251982    11.253651    -28.045382    36.191502    -1.059566    -10.679763    -11.015853    47.939941    0.000000    0.000000    0.000000    -52.118179    -21.608662    -19.880333    15.500445    61.723011    -14.044538    16.171917    -26.067554    2.087884    0.000000    0.000000    0.000000    
20.544783    141.555817    45.789940    9.292027    -15.665982    -63.921452    8.933711    -2.619820    -1.560414    5.288777    1.068310    -0.636864    22.406786    1.894612    13.188919    -18.641804    8.617242    9.501031    11.948973    4.272400    -15.197386    -13.791540    1.140255    -19.089209    19.971357    -5.361928    -45.751385    -6.750257    5.799928    -42.841728    -10.873303    -6.196337    -6.028236    26.292448    -30.860968    38.986382    8.891263    -17.943445    104.352058    15.787234    -24.564085    30.983580    17.157688    -24.236910    11.093950    -28.011110    36.152088    -1.067957    -10.667017    -11.023799    47.990139    0.000000    0.000000    0.000000    -51.959602    -21.475437    -19.884995    15.204355    61.562485    -13.838066    16.210110    -25.986219    2.067341    0.000000    0.000000    0.000000    
20.528921    141.649246    45.868511    9.233870    -15.600101    -63.880611    8.922609    -2.620761    -1.573785    5.269760    1.091698    -0.642180    22.435768    1.919912    13.188593    -18.702387    8.576001    9.490929    11.968699    4.305223    -15.173557    -13.789688    1.102834    -19.189795    19.966841    -5.369540    -45.781933    -6.700895    5.775918    -42.819843    -10.868425    -6.198915    -6.032340    26.335766    -30.958929    38.981258    8.975641    -17.774734    104.337944    15.736303    -24.508696    31.021212    17.134325    -24.217100    10.938237    -27.968502    36.104763    -1.065310    -10.665497    -11.033959    48.036705    0.000000    0.000000    0.000000    -51.806721    -21.329380    -19.833736    15.053089    61.369892    -13.741654    16.228485    -25.914261    2.006060    0.000000    0.000000    0.000000    
20.511246    141.753250    45.949936    9.181059    -15.526464    -63.844234    8.917426    -2.623047    -1.578330    5.248336    1.088482    -0.643336    22.460375    1.930692    13.191004    -18.719557    8.603922    9.495756    11.981287    4.328833    -15.173921    -13.792012    1.151953    -19.277672    20.044514    -5.416769    -45.747784    -6.738029    5.770448    -42.826653    -10.840452    -6.160166    -6.041079    26.289921    -30.904364    38.990250    8.875016    -17.881132    104.285240    15.719524    -24.480865    31.052046    17.114799    -24.198891    10.814228    -27.902248    36.056534    -1.072834    -10.673468    -11.021749    48.070122    0.000000    0.000000    0.000000    -51.654510    -21.182230    -19.773375    14.933870    61.151581    -13.668351    16.243189    -25.820900    1.952658    0.000000    0.000000    0.000000    
20.502234    141.858795    46.029968    9.140654    -15.441195    -63.828293    8.886845    -2.622590    -1.556619    5.282918    1.090266    -0.636259    22.440372    1.905459    13.196337    -18.740822    8.620814    9.500320    11.958403    4.314482    -15.206197    -13.793494    1.195637    -19.306759    20.081049    -5.481129    -45.745365    -6.782163    5.742356    -42.879246    -10.875265    -6.169682    -6.076347    26.310717    -30.868362    38.999119    8.774490    -17.920567    104.228745    15.670479    -24.400854    31.052994    17.113308    -24.189077    10.712966    -27.839909    36.009651    -1.089991    -10.680342    -11.027320    48.111336    0.000000    0.000000    0.000000    -51.495216    -21.067692    -19.723677    14.794540    60.927322    -13.598896    16.272182    -25.719452    1.903300    0.000000    0.000000    0.000000    
